<?xml version="1.0" encoding="UTF-8"?>
<mxfile host="app.diagrams.net" agent="Mozilla/5.0 (X11; Ubuntu; Linux x86_64; rv:142.0) Gecko/20100101 Firefox/142.0" version="28.2.3">
  <diagram name="Page-1" id="-cNnJSagF51l6DJXZbTe">
    <mxGraphModel dx="880" dy="615" grid="1" gridSize="10" guides="1" tooltips="1" connect="1" arrows="1" fold="1" page="1" pageScale="1" pageWidth="850" pageHeight="1100" math="0" shadow="0">
      <root>
        <mxCell id="0" />
        <mxCell id="1" parent="0" />
        <mxCell id="GreZGcUEzURQGZshLbXY-6" style="edgeStyle=orthogonalEdgeStyle;rounded=0;orthogonalLoop=1;jettySize=auto;html=1;entryX=0;entryY=0.5;entryDx=0;entryDy=0;" parent="1" source="GreZGcUEzURQGZshLbXY-1" target="GreZGcUEzURQGZshLbXY-4" edge="1">
          <mxGeometry relative="1" as="geometry" />
        </mxCell>
        <mxCell id="GreZGcUEzURQGZshLbXY-1" value="&lt;div&gt;Login Page&lt;/div&gt;" style="ellipse;whiteSpace=wrap;html=1;aspect=fixed;" parent="1" vertex="1">
          <mxGeometry x="70" y="40" width="80" height="80" as="geometry" />
        </mxCell>
        <mxCell id="h2dlr-JdCBBXs63xpvaT-5" style="edgeStyle=orthogonalEdgeStyle;rounded=0;orthogonalLoop=1;jettySize=auto;html=1;exitX=0.5;exitY=1;exitDx=0;exitDy=0;entryX=0.5;entryY=0;entryDx=0;entryDy=0;" edge="1" parent="1" source="GreZGcUEzURQGZshLbXY-4" target="h2dlr-JdCBBXs63xpvaT-3">
          <mxGeometry relative="1" as="geometry" />
        </mxCell>
        <mxCell id="h2dlr-JdCBBXs63xpvaT-6" value="No" style="edgeLabel;html=1;align=center;verticalAlign=middle;resizable=0;points=[];" vertex="1" connectable="0" parent="h2dlr-JdCBBXs63xpvaT-5">
          <mxGeometry x="-0.5143" y="-1" relative="1" as="geometry">
            <mxPoint as="offset" />
          </mxGeometry>
        </mxCell>
        <mxCell id="h2dlr-JdCBBXs63xpvaT-9" style="edgeStyle=orthogonalEdgeStyle;rounded=0;orthogonalLoop=1;jettySize=auto;html=1;entryX=0;entryY=0.5;entryDx=0;entryDy=0;" edge="1" parent="1" source="GreZGcUEzURQGZshLbXY-4" target="h2dlr-JdCBBXs63xpvaT-8">
          <mxGeometry relative="1" as="geometry" />
        </mxCell>
        <mxCell id="GreZGcUEzURQGZshLbXY-4" value="Existing Account?" style="rhombus;whiteSpace=wrap;html=1;" parent="1" vertex="1">
          <mxGeometry x="200" y="40" width="80" height="80" as="geometry" />
        </mxCell>
        <mxCell id="h2dlr-JdCBBXs63xpvaT-3" value="&lt;div&gt;Profile Creation&lt;/div&gt;" style="shape=process;whiteSpace=wrap;html=1;backgroundOutline=1;" vertex="1" parent="1">
          <mxGeometry x="180" y="170" width="120" height="60" as="geometry" />
        </mxCell>
        <mxCell id="h2dlr-JdCBBXs63xpvaT-11" style="edgeStyle=orthogonalEdgeStyle;rounded=0;orthogonalLoop=1;jettySize=auto;html=1;exitX=1;exitY=0.5;exitDx=0;exitDy=0;entryX=0;entryY=0.5;entryDx=0;entryDy=0;" edge="1" parent="1" source="h2dlr-JdCBBXs63xpvaT-8">
          <mxGeometry relative="1" as="geometry">
            <mxPoint x="490" y="80" as="targetPoint" />
          </mxGeometry>
        </mxCell>
        <mxCell id="h2dlr-JdCBBXs63xpvaT-8" value="Display Main Page with one new other user profile" style="rounded=1;whiteSpace=wrap;html=1;" vertex="1" parent="1">
          <mxGeometry x="320" y="50" width="120" height="60" as="geometry" />
        </mxCell>
        <mxCell id="h2dlr-JdCBBXs63xpvaT-17" style="edgeStyle=orthogonalEdgeStyle;rounded=0;orthogonalLoop=1;jettySize=auto;html=1;exitX=0.5;exitY=1;exitDx=0;exitDy=0;entryX=0.5;entryY=0;entryDx=0;entryDy=0;" edge="1" parent="1" source="h2dlr-JdCBBXs63xpvaT-12" target="h2dlr-JdCBBXs63xpvaT-13">
          <mxGeometry relative="1" as="geometry" />
        </mxCell>
        <mxCell id="h2dlr-JdCBBXs63xpvaT-12" value="User reacts to the profile&amp;nbsp;" style="rounded=1;whiteSpace=wrap;html=1;" vertex="1" parent="1">
          <mxGeometry x="490" y="50" width="120" height="60" as="geometry" />
        </mxCell>
        <mxCell id="h2dlr-JdCBBXs63xpvaT-18" style="edgeStyle=orthogonalEdgeStyle;rounded=0;orthogonalLoop=1;jettySize=auto;html=1;exitX=1;exitY=0.5;exitDx=0;exitDy=0;" edge="1" parent="1" source="h2dlr-JdCBBXs63xpvaT-13">
          <mxGeometry relative="1" as="geometry">
            <mxPoint x="630" y="190" as="targetPoint" />
          </mxGeometry>
        </mxCell>
        <mxCell id="h2dlr-JdCBBXs63xpvaT-19" value="&lt;div&gt;Yes&lt;/div&gt;" style="edgeLabel;html=1;align=center;verticalAlign=middle;resizable=0;points=[];" vertex="1" connectable="0" parent="h2dlr-JdCBBXs63xpvaT-18">
          <mxGeometry x="-0.0125" y="2" relative="1" as="geometry">
            <mxPoint x="-10" y="-2" as="offset" />
          </mxGeometry>
        </mxCell>
        <mxCell id="h2dlr-JdCBBXs63xpvaT-22" style="edgeStyle=orthogonalEdgeStyle;rounded=0;orthogonalLoop=1;jettySize=auto;html=1;exitX=0.5;exitY=1;exitDx=0;exitDy=0;entryX=0.5;entryY=0;entryDx=0;entryDy=0;" edge="1" parent="1" source="h2dlr-JdCBBXs63xpvaT-13" target="h2dlr-JdCBBXs63xpvaT-21">
          <mxGeometry relative="1" as="geometry" />
        </mxCell>
        <mxCell id="h2dlr-JdCBBXs63xpvaT-27" value="No" style="edgeLabel;html=1;align=center;verticalAlign=middle;resizable=0;points=[];" vertex="1" connectable="0" parent="h2dlr-JdCBBXs63xpvaT-22">
          <mxGeometry x="-0.3333" y="-1" relative="1" as="geometry">
            <mxPoint as="offset" />
          </mxGeometry>
        </mxCell>
        <mxCell id="h2dlr-JdCBBXs63xpvaT-13" value="&quot;Like&quot; reaction?" style="rhombus;whiteSpace=wrap;html=1;" vertex="1" parent="1">
          <mxGeometry x="510" y="150" width="80" height="80" as="geometry" />
        </mxCell>
        <mxCell id="h2dlr-JdCBBXs63xpvaT-24" style="edgeStyle=orthogonalEdgeStyle;rounded=0;orthogonalLoop=1;jettySize=auto;html=1;entryX=0.5;entryY=0;entryDx=0;entryDy=0;" edge="1" parent="1" source="h2dlr-JdCBBXs63xpvaT-20" target="h2dlr-JdCBBXs63xpvaT-8">
          <mxGeometry relative="1" as="geometry">
            <Array as="points">
              <mxPoint x="690" y="30" />
              <mxPoint x="380" y="30" />
            </Array>
          </mxGeometry>
        </mxCell>
        <mxCell id="h2dlr-JdCBBXs63xpvaT-20" value="Send &quot;Like&quot; to other user and update current user&#39;s telemetry" style="rounded=1;whiteSpace=wrap;html=1;" vertex="1" parent="1">
          <mxGeometry x="630" y="160" width="120" height="60" as="geometry" />
        </mxCell>
        <mxCell id="h2dlr-JdCBBXs63xpvaT-28" style="edgeStyle=orthogonalEdgeStyle;rounded=0;orthogonalLoop=1;jettySize=auto;html=1;exitX=1;exitY=0.5;exitDx=0;exitDy=0;entryX=0;entryY=0.5;entryDx=0;entryDy=0;" edge="1" parent="1" source="h2dlr-JdCBBXs63xpvaT-21" target="h2dlr-JdCBBXs63xpvaT-23">
          <mxGeometry relative="1" as="geometry" />
        </mxCell>
        <mxCell id="h2dlr-JdCBBXs63xpvaT-34" style="edgeStyle=orthogonalEdgeStyle;rounded=0;orthogonalLoop=1;jettySize=auto;html=1;" edge="1" parent="1" source="h2dlr-JdCBBXs63xpvaT-21" target="h2dlr-JdCBBXs63xpvaT-31">
          <mxGeometry relative="1" as="geometry" />
        </mxCell>
        <mxCell id="h2dlr-JdCBBXs63xpvaT-35" value="No" style="edgeLabel;html=1;align=center;verticalAlign=middle;resizable=0;points=[];" vertex="1" connectable="0" parent="h2dlr-JdCBBXs63xpvaT-34">
          <mxGeometry x="0.28" y="-2" relative="1" as="geometry">
            <mxPoint as="offset" />
          </mxGeometry>
        </mxCell>
        <mxCell id="h2dlr-JdCBBXs63xpvaT-21" value="&quot;Dislike&quot; reaction?" style="rhombus;whiteSpace=wrap;html=1;" vertex="1" parent="1">
          <mxGeometry x="510" y="260" width="80" height="80" as="geometry" />
        </mxCell>
        <mxCell id="h2dlr-JdCBBXs63xpvaT-29" style="edgeStyle=orthogonalEdgeStyle;rounded=0;orthogonalLoop=1;jettySize=auto;html=1;exitX=0.5;exitY=0;exitDx=0;exitDy=0;" edge="1" parent="1" source="h2dlr-JdCBBXs63xpvaT-23">
          <mxGeometry relative="1" as="geometry">
            <mxPoint x="380" y="50" as="targetPoint" />
            <mxPoint x="680" y="260" as="sourcePoint" />
            <Array as="points">
              <mxPoint x="690" y="260" />
              <mxPoint x="790" y="260" />
              <mxPoint x="790" y="30" />
              <mxPoint x="380" y="30" />
            </Array>
          </mxGeometry>
        </mxCell>
        <mxCell id="h2dlr-JdCBBXs63xpvaT-23" value="Update current user&#39;s telemetry" style="rounded=1;whiteSpace=wrap;html=1;" vertex="1" parent="1">
          <mxGeometry x="630" y="270" width="120" height="60" as="geometry" />
        </mxCell>
        <mxCell id="h2dlr-JdCBBXs63xpvaT-33" style="edgeStyle=orthogonalEdgeStyle;rounded=0;orthogonalLoop=1;jettySize=auto;html=1;exitX=1;exitY=0.5;exitDx=0;exitDy=0;" edge="1" parent="1" source="h2dlr-JdCBBXs63xpvaT-31" target="h2dlr-JdCBBXs63xpvaT-32">
          <mxGeometry relative="1" as="geometry" />
        </mxCell>
        <mxCell id="h2dlr-JdCBBXs63xpvaT-36" value="Yes" style="edgeLabel;html=1;align=center;verticalAlign=middle;resizable=0;points=[];" vertex="1" connectable="0" parent="h2dlr-JdCBBXs63xpvaT-33">
          <mxGeometry x="-0.3" y="-1" relative="1" as="geometry">
            <mxPoint as="offset" />
          </mxGeometry>
        </mxCell>
        <mxCell id="h2dlr-JdCBBXs63xpvaT-31" value="&quot;Expand Details&quot; reaction?" style="rhombus;whiteSpace=wrap;html=1;" vertex="1" parent="1">
          <mxGeometry x="510" y="370" width="80" height="80" as="geometry" />
        </mxCell>
        <mxCell id="h2dlr-JdCBBXs63xpvaT-37" style="edgeStyle=orthogonalEdgeStyle;rounded=0;orthogonalLoop=1;jettySize=auto;html=1;exitX=1;exitY=0.5;exitDx=0;exitDy=0;entryX=1;entryY=0.5;entryDx=0;entryDy=0;" edge="1" parent="1" source="h2dlr-JdCBBXs63xpvaT-32" target="h2dlr-JdCBBXs63xpvaT-12">
          <mxGeometry relative="1" as="geometry">
            <Array as="points">
              <mxPoint x="820" y="410" />
              <mxPoint x="820" y="80" />
            </Array>
          </mxGeometry>
        </mxCell>
        <mxCell id="h2dlr-JdCBBXs63xpvaT-32" value="Show expanded details and await return" style="rounded=1;whiteSpace=wrap;html=1;" vertex="1" parent="1">
          <mxGeometry x="630" y="380" width="120" height="60" as="geometry" />
        </mxCell>
      </root>
    </mxGraphModel>
  </diagram>
</mxfile>
